<?xml version="1.0" encoding="UTF-8"?><svg xmlns="http://www.w3.org/2000/svg" viewBox="0 0 1081 1081.5"><defs><style>.cls-1{isolation:isolate;}.cls-2{fill:#e20613;}.cls-3{fill:#fff;}.cls-4{fill:none;stroke:#000;stroke-miterlimit:100;}</style></defs><g id="Rectángulo_1" class="cls-1"><g id="Rectángulo_1-2"><rect class="cls-2" x=".5" y="1" width="1080" height="1080"/><rect class="cls-4" x=".5" y="1" width="1080" height="1080"/></g><path class="cls-3" d="M925.17,675.63c-1.39,1.28-3.34,1.95-5.5,1.73l-144.43-1.96c-4.17-.44-5.66-17.22-5.97-21.41l-8.49-114.46c-7.82-82.07,23.07-168.11,75.99-214.76,2.97-2.59,7.74-2.08,10.82,1.15,55.19,57.81,88.98,151,84.09,231.91l-4.33,112.93c-.06,1.98-.89,3.7-2.18,4.87ZM785.36,660.82h126.62l4.06-105.71c4.45-73.9-24.92-158.26-73.55-212.96-46.83,44.56-73.23,123-66.1,197.97l8.96,120.69Z"/><path class="cls-3" d="M987.3,701.62c-.52.48-1.13.88-1.8,1.15-2.63,1.05-5.8.83-8.21-1.23l-61.48-52.12c-3.51-2.97-4.29-7.98-1.77-11.2,2.48-3.25,7.41-3.39,10.94-.42l48.03,40.72c-4.58-43.26-23.95-85.68-54.51-119.03-3.11-3.4-3.2-8.39-.2-11.14,3-2.75,7.97-2.22,11.08,1.17,37.38,40.8,59.38,94.12,60.31,146.25.04,2.23-.86,4.43-2.39,5.84h0Z"/><path class="cls-3" d="M780.94,634.38c-.25.23-.52.46-.83.65l-59.81,39.26c-2.35,1.54-5.54,1.49-8.22-.15-2.67-1.63-4.4-4.56-4.43-7.54-.96-52.88,19.16-101.71,55.2-134.73,3-2.75,7.97-2.22,11.08,1.18s3.2,8.39.2,11.14c-29.6,27.12-47.55,65.83-50.45,107.95l46.8-30.71c3.42-2.23,8.33-1.02,11,2.74,2.41,3.44,2.11,7.79-.54,10.22h0Z"/><path class="cls-3" d="M873.07,503.62c-6.97,6.39-16.69,9.76-27.48,8.62-21.6-2.3-39.49-21.84-39.9-43.55-.4-21.72,16.86-37.53,38.47-35.24,21.6,2.3,39.49,21.84,39.9,43.55.2,10.87-4.02,20.24-10.98,26.62ZM827.96,454.38c-4.18,3.83-6.72,9.46-6.6,15.97.25,13.02,10.99,24.75,23.94,26.13,12.95,1.36,23.3-8.14,23.08-21.15-.25-13.02-10.99-24.75-23.94-26.13-6.47-.67-12.31,1.35-16.48,5.18h0ZM876.22,476.18l.11-.1-.11.1Z"/><path class="cls-3" d="M857.26,849.62c-1.42,1.31-3.38,1.94-5.5,1.73-2.88-.3-5.56-2.18-6.97-4.88-4.39-8.37-42.95-82.55-43.39-106.39-.49-26.85,20.83-46.41,47.55-43.56,26.7,2.83,48.83,26.98,49.32,53.83.43,23.84-35.58,90.11-39.68,97.58-.38.64-.82,1.2-1.34,1.68ZM826.26,719.47c-5.83,5.34-9.35,13.19-9.19,22.26.25,12.87,18.92,54.22,34.24,84.79,14.25-27.42,31.51-64.98,31.28-77.83-.33-18.16-15.3-34.5-33.36-36.42-9.02-.96-17.14,1.86-22.96,7.2Z"/></g><g id="Tu_guía_en_la_galaxia_empresarial"><path class="cls-3" d="M94.07,438.35h-9.14c-.14-.4-.14-1.08,0-1.48h19.87c.14.4.14,1.08,0,1.48h-9.11v22.32c-.54.14-1.08.14-1.62,0v-22.32Z"/><path class="cls-3" d="M123.23,458.19h-.14c-.79,2.12-3.89,2.92-7.99,2.92-4.57,0-8.06-1.44-8.06-5.22v-13.32c.43-.14,1.12-.14,1.55,0v13.03c0,3.53,3.17,4,6.8,4,4.93,0,6.34-.94,7.67-3.42v-13.61c.54-.14,1.01-.14,1.55,0v18.29c-.36.14-.76.14-1.12,0l-.25-2.66Z"/><path class="cls-3" d="M157.43,460.46l.18-2.92h-.14c-.79,2.12-3.89,2.92-8.03,2.92-4.64,0-8.1-1.44-8.1-5.22v-7.88c0-3.82,3.46-5.22,8.1-5.22,4.14,0,7.24.83,8.03,2.92h.14l.25-2.56c.4-.14.76-.14,1.12,0v20.84c0,3.6-3.1,5.33-8.75,5.33-2.41,0-5-.14-7.85-.61-.04-.36.04-1.12.22-1.4,2.45.32,4.72.54,7.63.54,4.5,0,7.2-.76,7.2-4.03v-2.7ZM157.43,447.07c-1.33-2.56-2.74-3.49-7.7-3.49-3.71,0-6.84.4-6.84,4.1v7.27c0,3.53,3.13,4,6.84,4,4.97,0,6.37-.94,7.7-3.42v-8.46Z"/><path class="cls-3" d="M183.39,458.19h-.14c-.79,2.12-3.89,2.92-7.99,2.92-4.57,0-8.06-1.44-8.06-5.22v-13.32c.43-.14,1.12-.14,1.55,0v13.03c0,3.53,3.17,4,6.8,4,4.93,0,6.33-.94,7.67-3.42v-13.61c.54-.14,1.01-.14,1.55,0v18.29c-.36.14-.76.14-1.12,0l-.25-2.66Z"/><path class="cls-3" d="M196.38,434.86c.61-.18,1.51-.18,2.12,0l-3.74,5.36c-.43.18-1.12.18-1.55,0l3.17-5.36ZM193.4,442.57c.54-.14,1.01-.14,1.55,0v18.11c-.54.14-1.01.14-1.55,0v-18.11Z"/><path class="cls-3" d="M217.66,458.19h-.14c-.97,2.05-3.92,2.92-8.03,2.92-4.5,0-7.88-1.44-7.88-5.29,0-4.54,3.64-5.54,8.78-5.54,2.34,0,4.36.11,7.09.47v-3.17c0-2.59-1.66-4-7.05-4-2.23,0-4.68.11-7.31.47-.14-.4-.14-1.01,0-1.4,2.59-.4,5.18-.5,7.63-.5,5.44,0,8.28,1.76,8.28,4.68v14.04c-.36.14-.76.14-1.12,0l-.25-2.66ZM217.48,452.03c-2.45-.25-4.79-.4-7.09-.4-4.64,0-7.24.61-7.24,4.14s3.17,3.82,6.73,3.82c4.9,0,6.26-.94,7.59-3.42v-4.14Z"/><path class="cls-3" d="M251.97,452.14c-3.82.14-10.98.14-15.55.04v3.42c0,3.53,3.31,4,7.09,4,3.1,0,5.04-.18,7.67-.58.14.43.14,1.04,0,1.44-2.74.43-5.18.65-7.67.65-5.36,0-8.64-1.44-8.64-5.22v-8.53c0-3.82,3.28-5.22,8.6-5.22s8.49,1.55,8.49,5.22v4.79ZM250.42,447.64c0-3.6-3.24-4.07-6.95-4.07s-7.06.47-7.06,4.07v3.35l2.92-.18h11.09v-3.17Z"/><path class="cls-3" d="M275.22,447.68c0-3.71-3.13-4.1-6.84-4.1-4.97,0-6.37.94-7.7,3.49v13.61c-.54.14-1.01.14-1.55,0v-18.18c.36-.14.76-.14,1.12,0l.25,2.56h.14c.79-2.09,3.89-2.92,8.03-2.92,4.64,0,8.1,1.4,8.1,5.22v13.32c-.43.14-1.12.14-1.55,0v-12.99Z"/><path class="cls-3" d="M293.98,434.68c.54-.14,1.01-.14,1.55,0v25.99c-.54.14-1.01.14-1.55,0v-25.99Z"/><path class="cls-3" d="M318.24,458.19h-.14c-.97,2.05-3.92,2.92-8.03,2.92-4.5,0-7.88-1.44-7.88-5.29,0-4.54,3.64-5.54,8.78-5.54,2.34,0,4.36.11,7.09.47v-3.17c0-2.59-1.66-4-7.05-4-2.23,0-4.68.11-7.31.47-.14-.4-.14-1.01,0-1.4,2.59-.4,5.18-.5,7.63-.5,5.44,0,8.28,1.76,8.28,4.68v14.04c-.36.14-.76.14-1.12,0l-.25-2.66ZM318.06,452.03c-2.45-.25-4.79-.4-7.09-.4-4.64,0-7.24.61-7.24,4.14s3.17,3.82,6.73,3.82c4.9,0,6.26-.94,7.59-3.42v-4.14Z"/><path class="cls-3" d="M351.54,460.46l.18-2.92h-.14c-.79,2.12-3.89,2.92-8.03,2.92-4.64,0-8.1-1.44-8.1-5.22v-7.88c0-3.82,3.46-5.22,8.1-5.22,4.14,0,7.23.83,8.03,2.92h.14l.25-2.56c.4-.14.76-.14,1.12,0v20.84c0,3.6-3.1,5.33-8.75,5.33-2.41,0-5-.14-7.85-.61-.04-.36.04-1.12.22-1.4,2.45.32,4.72.54,7.63.54,4.5,0,7.2-.76,7.2-4.03v-2.7ZM351.54,447.07c-1.33-2.56-2.74-3.49-7.7-3.49-3.71,0-6.84.4-6.84,4.1v7.27c0,3.53,3.13,4,6.84,4,4.97,0,6.37-.94,7.7-3.42v-8.46Z"/><path class="cls-3" d="M375.81,458.19h-.14c-.97,2.05-3.92,2.92-8.03,2.92-4.5,0-7.88-1.44-7.88-5.29,0-4.54,3.64-5.54,8.78-5.54,2.34,0,4.36.11,7.09.47v-3.17c0-2.59-1.66-4-7.05-4-2.23,0-4.68.11-7.31.47-.14-.4-.14-1.01,0-1.4,2.59-.4,5.18-.5,7.63-.5,5.44,0,8.28,1.76,8.28,4.68v14.04c-.36.14-.76.14-1.12,0l-.25-2.66ZM375.63,452.03c-2.45-.25-4.79-.4-7.09-.4-4.64,0-7.24.61-7.24,4.14s3.17,3.82,6.73,3.82c4.9,0,6.26-.94,7.59-3.42v-4.14Z"/><path class="cls-3" d="M384.92,434.68c.54-.14,1.01-.14,1.55,0v25.99c-.54.14-1.01.14-1.55,0v-25.99Z"/><path class="cls-3" d="M409.18,458.19h-.14c-.97,2.05-3.92,2.92-8.03,2.92-4.5,0-7.88-1.44-7.88-5.29,0-4.54,3.64-5.54,8.78-5.54,2.34,0,4.36.11,7.09.47v-3.17c0-2.59-1.66-4-7.06-4-2.23,0-4.68.11-7.31.47-.14-.4-.14-1.01,0-1.4,2.59-.4,5.18-.5,7.63-.5,5.44,0,8.28,1.76,8.28,4.68v14.04c-.36.14-.76.14-1.12,0l-.25-2.66ZM409,452.03c-2.45-.25-4.79-.4-7.09-.4-4.64,0-7.24.61-7.24,4.14s3.17,3.82,6.73,3.82c4.9,0,6.26-.94,7.59-3.42v-4.14Z"/><path class="cls-3" d="M424.3,452.36l-7.38,8.31c-.58.14-1.04.14-1.62,0l8.21-9.25-7.77-8.85c.4-.14,1.22-.14,1.66,0l6.95,7.92,7.02-7.92c.58-.14,1.04-.14,1.62,0l-7.85,8.82,8.17,9.29c-.43.14-1.26.14-1.66,0l-7.34-8.31Z"/><path class="cls-3" d="M438.74,435.8c.68-.14,1.3-.14,1.98,0l-.07,2.12c-.61.14-1.22.14-1.84,0l-.07-2.12ZM438.95,442.57c.54-.14,1.01-.14,1.55,0v18.11c-.54.14-1.01.14-1.55,0v-18.11Z"/><path class="cls-3" d="M463.21,458.19h-.14c-.97,2.05-3.92,2.92-8.03,2.92-4.5,0-7.88-1.44-7.88-5.29,0-4.54,3.64-5.54,8.78-5.54,2.34,0,4.36.11,7.09.47v-3.17c0-2.59-1.66-4-7.06-4-2.23,0-4.68.11-7.31.47-.14-.4-.14-1.01,0-1.4,2.59-.4,5.18-.5,7.63-.5,5.44,0,8.28,1.76,8.28,4.68v14.04c-.36.14-.76.14-1.12,0l-.25-2.66ZM463.03,452.03c-2.45-.25-4.79-.4-7.09-.4-4.64,0-7.23.61-7.23,4.14s3.17,3.82,6.73,3.82c4.9,0,6.26-.94,7.6-3.42v-4.14Z"/><path class="cls-3" d="M497.52,452.14c-3.82.14-10.98.14-15.55.04v3.42c0,3.53,3.31,4,7.09,4,3.1,0,5.04-.18,7.67-.58.14.43.14,1.04,0,1.44-2.74.43-5.18.65-7.67.65-5.36,0-8.64-1.44-8.64-5.22v-8.53c0-3.82,3.28-5.22,8.6-5.22s8.5,1.55,8.5,5.22v4.79ZM495.97,447.64c0-3.6-3.24-4.07-6.95-4.07s-7.06.47-7.06,4.07v3.35l2.92-.18h11.09v-3.17Z"/><path class="cls-3" d="M536.4,447.68c0-3.78-3.1-4.1-6.73-4.1-4.86,0-6.26.94-7.56,3.31v13.79c-.43.14-1.12.14-1.55,0v-12.99c0-3.71-3.1-4.1-6.73-4.1-4.9,0-6.33.94-7.59,3.49v13.61c-.54.14-1.01.14-1.55,0v-18.18c.36-.14.76-.14,1.12,0l.25,2.56h.14c.79-2.09,3.85-2.92,7.92-2.92,3.42,0,6.26.83,7.42,2.92h.5c.79-2.09,3.85-2.92,7.92-2.92,4.54,0,7.99,1.4,7.99,5.22v13.32c-.43.14-1.12.14-1.55,0v-12.99Z"/><path class="cls-3" d="M546.16,442.39c.36-.14.76-.14,1.12,0l.25,2.66h.14c.79-2.09,3.89-2.92,8.03-2.92,4.64,0,8.1,1.4,8.1,5.22v8.53c0,3.78-3.46,5.22-8.1,5.22-4.14,0-7.24-.79-8.03-2.92h-.14l.18,2.92v7.49c-.54.11-1.01.11-1.55,0v-26.2ZM562.25,447.68c0-3.71-3.13-4.1-6.84-4.1-4.97,0-6.37.94-7.7,3.49v9.11c1.33,2.48,2.74,3.42,7.7,3.42,3.71,0,6.84-.47,6.84-4v-7.92Z"/><path class="cls-3" d="M571.54,442.49c.36-.14.76-.14,1.12,0l.25,2.66h.14c.83-2.12,3.74-3.02,7.74-3.02.14.4.14,1.15,0,1.51-4.97,0-6.41.86-7.7,3.42v13.61c-.54.14-1.01.14-1.55,0v-18.18Z"/><path class="cls-3" d="M602.64,452.14c-3.82.14-10.98.14-15.55.04v3.42c0,3.53,3.31,4,7.09,4,3.1,0,5.04-.18,7.67-.58.14.43.14,1.04,0,1.44-2.74.43-5.18.65-7.67.65-5.36,0-8.64-1.44-8.64-5.22v-8.53c0-3.82,3.28-5.22,8.6-5.22s8.5,1.55,8.5,5.22v4.79ZM601.09,447.64c0-3.6-3.24-4.07-6.95-4.07s-7.05.47-7.05,4.07v3.35l2.92-.18h11.09v-3.17Z"/><path class="cls-3" d="M623.16,456.35c0,3.46-3.2,4.75-7.7,4.75-2.2,0-5.04-.14-7.24-.61-.18-.4-.18-1.01,0-1.44,2.34.4,4.75.54,7.2.54,2.95,0,6.19-.36,6.19-3.42v-.76c0-1.84-1.4-2.27-3.92-2.77l-4.07-.83c-3.53-.72-5.58-1.62-5.58-3.85v-1.22c0-3.31,3.24-4.61,8.39-4.61,1.98,0,3.82.11,6.55.5.14.4.14,1.01,0,1.4-2.63-.4-4.17-.5-6.51-.5-3.71,0-6.88.36-6.88,3.35v.79c0,1.62,1.48,2.12,3.89,2.63l4.14.86c4,.83,5.54,1.58,5.54,4.14v1.04Z"/><path class="cls-3" d="M644.11,458.19h-.14c-.97,2.05-3.92,2.92-8.03,2.92-4.5,0-7.88-1.44-7.88-5.29,0-4.54,3.64-5.54,8.78-5.54,2.34,0,4.36.11,7.09.47v-3.17c0-2.59-1.66-4-7.05-4-2.23,0-4.68.11-7.31.47-.14-.4-.14-1.01,0-1.4,2.59-.4,5.18-.5,7.63-.5,5.44,0,8.28,1.76,8.28,4.68v14.04c-.36.14-.76.14-1.12,0l-.25-2.66ZM643.93,452.03c-2.45-.25-4.79-.4-7.09-.4-4.64,0-7.24.61-7.24,4.14s3.17,3.82,6.73,3.82c4.9,0,6.26-.94,7.59-3.42v-4.14Z"/><path class="cls-3" d="M653.22,442.49c.36-.14.76-.14,1.12,0l.25,2.66h.14c.83-2.12,3.74-3.02,7.74-3.02.14.4.14,1.15,0,1.51-4.97,0-6.41.86-7.7,3.42v13.61c-.54.14-1.01.14-1.55,0v-18.18Z"/><path class="cls-3" d="M667.91,435.8c.68-.14,1.3-.14,1.98,0l-.07,2.12c-.61.14-1.22.14-1.84,0l-.07-2.12ZM668.13,442.57c.54-.14,1.01-.14,1.55,0v18.11c-.54.14-1.01.14-1.55,0v-18.11Z"/><path class="cls-3" d="M692.39,458.19h-.14c-.97,2.05-3.92,2.92-8.03,2.92-4.5,0-7.88-1.44-7.88-5.29,0-4.54,3.64-5.54,8.78-5.54,2.34,0,4.36.11,7.09.47v-3.17c0-2.59-1.66-4-7.06-4-2.23,0-4.68.11-7.31.47-.14-.4-.14-1.01,0-1.4,2.59-.4,5.18-.5,7.63-.5,5.44,0,8.28,1.76,8.28,4.68v14.04c-.36.14-.76.14-1.12,0l-.25-2.66ZM692.21,452.03c-2.45-.25-4.79-.4-7.09-.4-4.64,0-7.23.61-7.23,4.14s3.17,3.82,6.73,3.82c4.9,0,6.26-.94,7.6-3.42v-4.14Z"/><path class="cls-3" d="M701.5,434.68c.54-.14,1.01-.14,1.55,0v25.99c-.54.14-1.01.14-1.55,0v-25.99Z"/></g><g id="Grupo_1" class="cls-1"><path class="cls-3" d="M134.39,365.64c0,11-7.64,14.78-19.91,14.78h-19.82v22.68c-1.26.34-2.52.34-3.78,0v-55.52h23.6c12.26,0,19.91,3.86,19.91,15.29v2.77ZM130.61,363.29c0-10.58-7.39-12.1-16.3-12.1h-19.66v25.87h19.66c8.99,0,16.3-1.68,16.3-11.76v-2.02Z"/><path class="cls-3" d="M193.61,402.6l.42-6.8h-.34c-1.85,4.96-9.07,6.8-18.65,6.8-10.67,0-18.82-3.36-18.82-12.18v-29.57c1.01-.34,2.6-.34,3.61,0v28.9c0,8.23,7.31,9.32,15.88,9.32,11.51,0,14.78-2.18,17.89-7.98v-30.24c1.26-.34,2.35-.34,3.61,0v48.47c0,8.4-7.22,12.43-20.33,12.43-5.54,0-11.59-.34-18.23-1.43-.08-.84.08-2.6.5-3.28,5.71.84,11,1.26,17.72,1.26,10.42,0,16.72-1.76,16.72-9.41v-6.3Z"/><path class="cls-3" d="M298.94,372.78c0-8.82-7.22-9.58-15.71-9.58-11.34,0-14.62,2.18-17.64,7.73v32.17c-1.01.34-2.6.34-3.61,0v-30.32c0-8.65-7.22-9.58-15.71-9.58-11.42,0-14.78,2.18-17.72,8.15v31.75c-1.26.34-2.35.34-3.61,0v-42.42c.84-.34,1.76-.34,2.6,0l.59,5.96h.34c1.85-4.87,8.99-6.8,18.48-6.8,7.98,0,14.62,1.93,17.3,6.8h1.18c1.85-4.87,8.99-6.8,18.48-6.8,10.58,0,18.65,3.28,18.65,12.18v31.08c-1.01.34-2.6.34-3.61,0v-30.32Z"/><path class="cls-3" d="M367.07,383.2c-8.9.34-25.62.34-36.29.08v7.98c0,8.23,7.73,9.32,16.55,9.32,7.22,0,11.76-.42,17.89-1.34.34,1.01.34,2.44,0,3.36-6.38,1.01-12.1,1.51-17.89,1.51-12.52,0-20.16-3.36-20.16-12.18v-19.91c0-8.9,7.64-12.18,20.08-12.18s19.82,3.61,19.82,12.18v11.17ZM363.45,372.7c0-8.4-7.56-9.49-16.21-9.49s-16.46,1.09-16.46,9.49v7.81l6.8-.42h25.87v-7.39Z"/><path class="cls-3" d="M394.62,352.71v50.4c-1.26.34-2.52.34-3.78,0v-55.52c1.09-.34,3.28-.34,4.45,0l38.64,51.24v-51.24c1.26-.34,2.52-.34,3.78,0v55.52c-1.51.34-3.44.34-4.96,0l-38.14-50.4Z"/><path class="cls-3" d="M497.77,397.31h-.34c-2.27,4.79-9.16,6.8-18.73,6.8-10.5,0-18.4-3.36-18.4-12.35,0-10.58,8.48-12.94,20.5-12.94,5.46,0,10.16.25,16.55,1.09v-7.39c0-6.05-3.86-9.32-16.46-9.32-5.21,0-10.92.25-17.05,1.09-.34-.92-.34-2.35,0-3.28,6.05-.92,12.1-1.18,17.81-1.18,12.68,0,19.32,4.12,19.32,10.92v32.76c-.84.34-1.76.34-2.6,0l-.59-6.22ZM497.35,382.94c-5.71-.59-11.17-.92-16.55-.92-10.84,0-16.88,1.43-16.88,9.66s7.39,8.9,15.71,8.9c11.42,0,14.62-2.18,17.72-7.98v-9.66Z"/><path class="cls-3" d="M563.37,397.31h-.34c-1.85,4.96-9.07,6.8-18.65,6.8-10.67,0-18.82-3.36-18.82-12.18v-31.08c1.01-.34,2.6-.34,3.61,0v30.41c0,8.23,7.39,9.32,15.88,9.32,11.51,0,14.78-2.18,17.89-7.98v-31.75c1.26-.34,2.35-.34,3.61,0v42.67c-.84.34-1.76.34-2.6,0l-.59-6.22Z"/><path class="cls-3" d="M597.14,364.38h-9.66c-.34-.67-.34-2.1,0-2.77l9.66-.34v-11.93c1.26-.34,2.35-.34,3.61,0v11.84h19.32c.34.67.34,2.52,0,3.19h-19.32v26.71c0,8.65,6.13,9.49,10.92,9.49,3.44,0,5.8-.25,8.4-.59.34,1.01.34,2.44,0,3.36-2.94.42-5.88.76-9.32.76-6.72,0-13.61-2.44-13.61-12.35v-27.38Z"/><path class="cls-3" d="M673.83,397.31h-.34c-2.27,4.79-9.16,6.8-18.73,6.8-10.5,0-18.4-3.36-18.4-12.35,0-10.58,8.48-12.94,20.5-12.94,5.46,0,10.16.25,16.55,1.09v-7.39c0-6.05-3.86-9.32-16.46-9.32-5.21,0-10.92.25-17.05,1.09-.34-.92-.34-2.35,0-3.28,6.05-.92,12.1-1.18,17.81-1.18,12.68,0,19.32,4.12,19.32,10.92v32.76c-.84.34-1.76.34-2.6,0l-.59-6.22ZM673.41,382.94c-5.71-.59-11.17-.92-16.55-.92-10.84,0-16.88,1.43-16.88,9.66s7.39,8.9,15.71,8.9c11.42,0,14.62-2.18,17.72-7.98v-9.66Z"/><path class="cls-3" d="M733.8,393.02c0,8.06-7.48,11.09-17.98,11.09-5.12,0-11.76-.34-16.88-1.43-.42-.92-.42-2.35,0-3.36,5.46.92,11.09,1.26,16.8,1.26,6.89,0,14.45-.84,14.45-7.98v-1.76c0-4.28-3.28-5.29-9.16-6.47l-9.49-1.93c-8.23-1.68-13.02-3.78-13.02-8.99v-2.86c0-7.73,7.56-10.75,19.57-10.75,4.62,0,8.9.25,15.29,1.18.34.92.34,2.35,0,3.28-6.13-.92-9.74-1.18-15.2-1.18-8.65,0-16.04.84-16.04,7.81v1.85c0,3.78,3.44,4.96,9.07,6.13l9.66,2.02c9.32,1.93,12.94,3.7,12.94,9.66v2.44Z"/></g></svg>