<?xml version="1.0" encoding="UTF-8"?><svg xmlns="http://www.w3.org/2000/svg" viewBox="0 0 1080 1080"><defs><style>.cls-1{isolation:isolate;}.cls-2{fill:#e20613;}.cls-3{fill:#fff;}</style></defs><g id="Rectángulo_1" class="cls-1"><circle class="cls-2" cx="540" cy="540" r="490.31"/><path class="cls-3" d="M674.73,695.61c-2.45,2.25-5.88,3.43-9.68,3.05l-254.3-3.44c-7.34-.78-9.96-30.32-10.52-37.7l-14.94-201.55c-13.77-144.5,40.61-296,133.8-378.14,5.24-4.56,13.62-3.67,19.04,2.02,97.17,101.8,156.67,265.87,148.06,408.34l-7.62,198.84c-.11,3.49-1.58,6.51-3.84,8.58ZM428.56,669.53h222.95l7.15-186.12c7.84-130.11-43.88-278.66-129.5-374.97-82.46,78.46-128.95,216.57-116.38,348.58l15.77,212.51Z"/><path class="cls-3" d="M784.12,741.37c-.92.84-2,1.55-3.18,2.03-4.64,1.86-10.22,1.46-14.45-2.16l-108.24-91.77c-6.17-5.24-7.56-14.06-3.12-19.71,4.38-5.72,13.05-5.98,19.27-.74l84.57,71.7c-8.06-76.18-42.18-150.87-95.98-209.59-5.48-5.99-5.64-14.77-.36-19.62,5.29-4.84,14.03-3.92,19.51,2.07,65.82,71.85,104.55,165.72,106.2,257.51.07,3.92-1.51,7.81-4.22,10.28h0Z"/><path class="cls-3" d="M420.76,622.98c-.44.4-.92.8-1.46,1.14l-105.32,69.12c-4.14,2.71-9.75,2.63-14.47-.26-4.71-2.87-7.74-8.03-7.8-13.28-1.69-93.1,33.74-179.09,97.2-237.23,5.29-4.84,14.03-3.92,19.51,2.07,5.48,5.99,5.64,14.77.36,19.62-52.12,47.75-83.73,115.92-88.82,190.07l82.4-54.07c6.02-3.92,14.67-1.79,19.37,4.83,4.24,6.05,3.71,13.71-.96,17.99h0Z"/><path class="cls-3" d="M583,392.74c-12.28,11.25-29.39,17.19-48.39,15.17-38.02-4.05-69.53-38.45-70.25-76.68-.7-38.25,29.68-66.08,67.73-62.05,38.03,4.05,69.54,38.45,70.25,76.68.35,19.15-7.08,35.65-19.34,46.88ZM503.57,306.04c-7.36,6.74-11.83,16.66-11.62,28.12.44,22.93,19.35,43.58,42.16,46.02,22.81,2.4,41.02-14.33,40.64-37.24-.44-22.93-19.35-43.58-42.16-46.02-11.39-1.17-21.67,2.38-29.02,9.12h0ZM588.54,344.42l.19-.17-.19.17Z"/><path class="cls-3" d="M555.15,1001.96c-2.51,2.3-5.95,3.42-9.68,3.04-5.07-.54-9.79-3.84-12.27-8.58-7.73-14.74-75.63-145.35-76.39-187.33-.86-47.28,36.68-81.71,83.72-76.7,47.02,4.99,85.98,47.51,86.84,94.79.76,41.98-62.64,158.66-69.86,171.82-.66,1.12-1.44,2.12-2.36,2.96ZM500.56,772.8c-10.27,9.41-16.46,23.22-16.19,39.2.43,22.66,33.32,95.48,60.3,149.3,25.1-48.28,55.48-114.41,55.07-137.05-.58-31.97-26.95-60.75-58.75-64.13-15.88-1.68-30.18,3.28-40.43,12.67Z"/></g></svg>